<?xml version="1.0" encoding="utf-8"?>
<!-- Generator: Adobe Illustrator 27.7.0, SVG Export Plug-In . SVG Version: 6.00 Build 0)  -->
<svg version="1.1" id="Layer_1" xmlns="http://www.w3.org/2000/svg" xmlns:xlink="http://www.w3.org/1999/xlink" x="0px" y="0px"
	 viewBox="0 0 317.03 316.02" style="enable-background:new 0 0 317.03 316.02;" xml:space="preserve">
<style type="text/css">
	.st0{fill:#E7F2DC;}
	.st1{fill:#6BB345;}
	.st2{fill:#4A9945;}
	.st3{fill:#7FC343;}
	.st4{fill:#7FC142;}
	.st5{fill:#7DC142;}
	.st6{fill:#4C9544;}
</style>
<g>
	<g>
		<path class="st0" d="M233.63,79.3C233.92,79.02,233.35,79.57,233.63,79.3C233.35,79.57,233.92,79.02,233.63,79.3z"/>
	</g>
	<g>
		<path class="st1" d="M221.6,97.24c9.74-7.38,18.76-12.33,29.61-18.31c6.06-3.34,14.76-9.52,21.7-10.31
			c7.12-0.82,10.39,8.29,13.67,13.74c17.69,29.42,24.89,67.11,18.53,100.99c-13.12,69.89-75.48,123.15-147.28,122.25
			c-71.27-0.89-133.5-53.3-145.19-123.95C0.95,111.03,42.54,44.12,108,17.98c35.98-14.37,80.32-10.63,114.82,5.9
			c6.37,3.05,19.09,7.65,23.42,13.42c4.48,5.97-3.39,16.2-6.37,22.67c-6.04,13.11-13.02,25.3-21.61,36.56
			C220.29,98.56,219.55,95.21,221.6,97.24z M101.72,275.13c-0.61,14,19.46,15.82,21.54,2.33
			C125.56,262.44,101.72,259.93,101.72,275.13z M142.78,27.69c-0.03-10.89-15.89-11.3-16.78-0.6
			C125.02,38.98,142.82,39.54,142.78,27.69z M78.38,261.44c0,9.17,13.61,10.94,15.09,2.03C95.04,254.01,78.39,251.3,78.38,261.44z
			 M111.91,39.12c8.28-0.08,7-12.92-1.01-11C104.86,29.57,105.1,39.18,111.91,39.12z M105.47,257.25c5.82,0.41,4.91-8.06,0.4-8.53
			C101.26,248.25,98.79,257.72,105.47,257.25z"/>
	</g>
	<g>
		<path class="st2" d="M153.69,157.4c-14.43,18.34-33.23,34.19-49.73,50.69c-4.7,4.7-47.12,49.18-49.56,46.48
			c-2.15-2.39,87.03-92.88,98.32-98.49C154.78,154.79,154.95,155.91,153.69,157.4z"/>
	</g>
	<g>
		<path class="st2" d="M25.53,160.88c-3.49,0-6.33,0.42-6.33-2.41c0-3.3,20.39-2.82,28.55-3.5c12.46-1.04,24.86-2.63,37.29-3.93
			c11.56-1.21,23.15-1.96,34.73-3.01c8.83-0.8,30.45-6.61,32.9-1.62c1.45,3.82-19.56,3.92-26.92,4.57
			c-11.8,1.04-23.58,2.29-35.36,3.55C68.77,156.82,47.1,158.03,25.53,160.88z"/>
	</g>
	<g>
		<path class="st2" d="M161.79,296.68c-3.44-8.88-1.02-21.05-0.53-30.54c0.61-12.02,1.21-24.04,1.66-36.07
			c0.44-11.82,0.86-23.64,1.25-35.45c0.3-8.92-2.5-25.31,2.16-32.84c3.59-0.72,2.12,22.2,1.79,29.54
			c-0.54,11.94-1.17,23.86-1.6,35.81c-0.38,10.55-1.11,21.09-1.42,31.65c-0.36,12.05,1.5,25.97-1.95,37.62
			C162.69,296.48,162.24,296.58,161.79,296.68z"/>
	</g>
	<g>
		<path class="st2" d="M248.24,257.27c-7.69-5.62-12.52-15.45-18.22-23.04c-6.82-9.08-13.76-18.07-20.6-27.13
			c-6.56-8.68-13.14-17.35-19.71-26.02c-5.07-6.69-15.35-19.35-14.86-23.4c2.09-2.94,13.41,14.23,18.31,20.64
			c6.62,8.65,12.73,17.73,19.13,26.54c11.97,16.46,28.97,32.7,37.08,51.36C248.99,256.57,248.61,256.92,248.24,257.27z"/>
	</g>
	<g>
		<path class="st2" d="M60.37,61.27c18.51,9.47,35.12,24.49,51.79,36.9c8.54,6.36,17.06,12.72,25.6,19.08
			c7.44,5.54,16.54,10.47,21.89,18.1c0.7,0.77,0.17,1.81-0.84,1.27c-18.59-7.67-35.2-25.15-51.42-36.96
			C91.24,87.9,73.98,76.59,59.12,63.25C58.67,61.77,59.32,61.27,60.37,61.27z"/>
	</g>
	<g>
		<path class="st2" d="M183.61,145.5c17.96,1.68,35.9,3.46,53.85,5.23c9.21,0.91,18.43,1.71,27.64,2.52
			c6.71,0.59,25.41-0.6,24.16,4.41c-0.87,4.95-19.57,0.06-27.57-0.71c-9.55-0.92-19.09-1.9-28.61-3.03
			c-9.11-1.08-18.08-1.91-27.23-2.39c-6.94-0.37-26.72,0.04-26-3.79C180.2,146.06,182.22,145.24,183.61,145.5z"/>
	</g>
	<g>
		<path class="st2" d="M166.63,78.56c0.55,9.23,0.99,18.44,1.29,27.69c0.26,8.13,2.05,25.63-1.02,25.91
			c-3.71-0.26-2.29-17.59-2.73-25.88c-0.54-10.22-1.07-20.43-1.45-30.66c-0.36-9.61-0.6-19.21-1.03-28.82
			c-0.34-7.56-2.73-22.83,0.94-24.44c2.88,0.2,3.07,18.78,3.11,27.08C166.24,59.17,166.65,68.83,166.63,78.56
			C166.69,78.57,166.58,78.56,166.63,78.56z"/>
	</g>
	<g>
		<path class="st3" d="M101.72,275.13c0-15.2,23.85-12.69,21.54,2.33C121.18,290.95,101.11,289.13,101.72,275.13z"/>
	</g>
	<g>
		<path class="st4" d="M142.78,27.69c0.04,11.85-17.76,11.29-16.78-0.6C126.89,16.39,142.75,16.8,142.78,27.69z"/>
	</g>
	<g>
		<path class="st4" d="M78.38,261.44c0-10.15,16.66-7.44,15.09,2.03C91.99,272.39,78.38,270.62,78.38,261.44z"/>
	</g>
	<g>
		<path class="st4" d="M111.91,39.12c-6.82,0.06-7.05-9.55-1.01-11C118.92,26.2,120.19,39.04,111.91,39.12z"/>
	</g>
	<g>
		<path class="st5" d="M105.47,257.25c-6.68,0.46-4.22-9,0.4-8.53C110.38,249.19,111.29,257.66,105.47,257.25z"/>
	</g>
	<path class="st6" d="M316.68,146.98c-0.27-4.16-0.67-6.9-1.7-11.65c-4.23-21.11-10.02-43.53-23.72-64.4
		c-7.68-11.74-13.04-16.42-28.75-8.73c-8.05,4.63-12.62,7.72-18.67,11.82l-2.05,1.38c2.66-4.28,6.29-10.38,8.87-15.53
		c0.38-0.75,0.99-1.76,1.69-2.94c4.66-7.88,8.35-14.88,6.18-20.77c-1.98-5.35-9.1-10.93-21.18-16.56l-3.36-1.58
		c-5.98-2.8-11.68-5.47-17.96-7.91c-28.78-11.2-60.07-13.05-95.58-5.68C65.17,15.88,18.52,62.43,4.35,120.26
		C-9.83,178.04,11.31,240.8,58.2,280.14c28.16,23.63,63.78,35.88,99.99,35.88c22.66,0,45.53-4.8,66.94-14.6
		c52.23-23.91,88.17-76.46,91.55-133.78C317.25,159.84,317.04,154.19,316.68,146.98z M110.27,24.1c14.24-5.69,30.21-8.5,46.56-8.5
		c21.35,0,43.37,4.79,63.05,14.22c1.36,0.65,2.99,1.38,4.77,2.15c5.18,2.27,13.85,6.08,16.27,9.31c0.74,1.7-2.98,8.38-4.37,10.9
		c-1.04,1.85-2,3.61-2.42,4.59l-5.77,9.96c-7.21,12.54-12.42,21.61-22.33,34.38c-1.84,3.05-0.93,6.95,2.28,9.68l5.04,3.85l4.17-3.47
		c0.79-0.61,23.06-17.84,38.11-26.14c1.96-1.08,4.06-2.47,6.21-3.92c3.93-2.63,8.38-5.6,11.66-5.98c1.08-0.1,4.06,4.59,5.45,7.19
		c0.66,1.22,1.29,2.4,1.93,3.44c17.1,28.44,23.71,64.5,17.72,96.45c-12.58,66.96-72.22,116.96-139.15,116.96
		c-0.56,0-1.12-0.01-1.69-0.01c-68.13-0.85-127.82-51.8-138.86-118.52C7.92,114.35,45.5,49.96,110.27,24.1z"/>
	<path d="M91.54,89.38h85.57c39.72,0,64.44,16.7,64.44,58.13c0,41.42-24.72,58.29-64.09,58.29h-29.83v26.77H91.54V89.38z
		 M171.83,159.44c7.84,0,13.13-4.09,13.13-11.93c0-7.84-5.29-11.76-12.79-11.76h-24.55v23.7H171.83z"/>
	<g id="HOiZdV_00000158748803318073619580000000128371109110982322_">
		<g>
			<path class="st1" d="M202.88,123.46c0,6.68,9.91,7.97,10.99,1.48C215.01,118.04,202.88,116.06,202.88,123.46z"/>
			<path class="st1" d="M202.88,123.46c0-7.39,12.13-5.42,10.99,1.48C212.79,131.43,202.87,130.14,202.88,123.46z"/>
		</g>
	</g>
	<g id="HOiZdV_00000134221916684126572570000001918341295685621646_">
		<g>
			<path class="st6" d="M206.71,110.6c0,5.11,7.58,6.1,8.41,1.13C215.99,106.46,206.72,104.95,206.71,110.6z"/>
			<path class="st6" d="M206.71,110.6c0-5.65,9.28-4.14,8.41,1.13C214.3,116.7,206.71,115.71,206.71,110.6z"/>
		</g>
	</g>
	<g id="HOiZdV_00000023992761302560500330000016353028300075350192_">
		<g>
			<path class="st1" d="M189.48,112.26c0,9.59,14.23,11.44,15.77,2.12C206.89,104.49,189.49,101.66,189.48,112.26z"/>
			<path class="st4" d="M189.48,110.25c0.01-10.61,17.41-7.77,15.77,2.12C203.71,121.69,189.48,119.84,189.48,110.25z"/>
		</g>
	</g>
</g>
</svg>
